# xmcd
#
# Track frame offsets: 
#        150
#        12047
#        27173
#        37856
#        51931
#        62271
#        76151
#        88473
#        99906
#        113127
#        126870
#        139906
#        154086
#        167378
#        178373
#        196151
#        209676
#        222196
#        235231
#        250643
#
# Disc length: 3523 seconds
#
# Revision: 2
# Processed by: cddbd v1.5PL3 Copyright (c) Steve Scherf et al.
# Submitted via: ExactAudioCopy v0.90b4
#
DISCID=060dc114
DTITLE=Ronnie Milsap - Pure Love - A Legend In My Time
DYEAR=2000
DGENRE=Country
TTITLE0=My Love Is Deep, My Love Is Wide
TTITLE1=Amazing Love
TTITLE2=Pure Love
TTITLE3=Four Walls
TTITLE4=Streets Of Gold
TTITLE5=Love The Second Time Around
TTITLE6=Please Don't Tell Me How The Story Ends
TTITLE7=All My Roads (Lead Back To You)
TTITLE8=Behind Closed Doors
TTITLE9=Blue Ridge Mountains Turnin' Green
TTITLE10=The Busiest Memory In Town
TTITLE11=Too Late To Worry, Too Blue To Cry
TTITLE12=(I'd Be) A Legend In My Time
TTITLE13=The Biggest Lie
TTITLE14=Country Cookin'
TTITLE15=She Came Here For The Change
TTITLE16=I'll Leave This World Loving You
TTITLE17=I'm Still Not Over You
TTITLE18=I Honestly Love You
TTITLE19=Clap Your Hands
EXTD=\nYEAR: 2000  ID3G:   2
EXTT0=
EXTT1=
EXTT2=
EXTT3=
EXTT4=
EXTT5=
EXTT6=
EXTT7=
EXTT8=
EXTT9=
EXTT10=
EXTT11=
EXTT12=
EXTT13=
EXTT14=
EXTT15=
EXTT16=
EXTT17=
EXTT18=
EXTT19=
PLAYORDER=
